<?xml version="1.0" encoding="utf-8"?>
<!-- Generator: Adobe Illustrator 19.0.0, SVG Export Plug-In . SVG Version: 6.00 Build 0)  -->
<svg version="1.1" id="layer" xmlns="http://www.w3.org/2000/svg" xmlns:xlink="http://www.w3.org/1999/xlink" x="0px" y="0px"
	 viewBox="-153 -46 652 652" style="enable-background:new -153 -46 652 652;" xml:space="preserve">
<path d="M163.8,187.5c1.4,0.3,3-0.1,4-1.2c1.5-1.4,3.2-2.7,4.9-3.9c3.2-2.7,5.7-6,7.5-9.8c1.2-3,2.9-5.8,5.1-8.3
	c0.8-0.8,0,0-1.2,0.6c-1.2,0.6,0.3-0.5,0-0.7c-1.4,0.7-2.7,1.6-3.8,2.6c-1.2,1.3-13.7,13.1-17.7,14.9c-0.6,0.5-1.4,0.7-2.1,0.4
	c-1.2-0.4-1,0.8-1.3,1.5c-0.2,0.6,3.8,3.7,4.7,3.9"/>
<path d="M-51.4,202.1c-1,0-7.7,0-10.5,0c-2.8,0-11.5-0.5-13.9,0.9c-1.4,0.6-2.6,1.8-3.2,3.2c-0.7,1.5-0.8,3.2-0.2,4.7
	c0.6,1.8-1.2,5.1-2.1,6.9s-10.8,15.5-14.4,19.8c-3.5,4.3-9,12-16.2,14.5c0,0-9.2-36.2,38-79.2c0,0,1.6-1.5,2.4-1.4
	c1.2,0.4,2.3,0.9,3.4,1.5c1.4,0.6,4.7,2.9,7.6,0.7c3.6-3.2,4-8.7,1-12.5c-3.6-4.4-10-5.7-14.6-7.4s-11.9-0.8-17.7,0.3
	c-5.8,1.1-13.8,10-21.3,23.5c-7.6,13.5-6.6,15.1-8.3,20.1c-1.7,5-14.3,33.6-5.1,54.4s15.6,14.3,23.6,12.1c8-2.1,16.4-11.1,21.7-18.8
	c0,0-0.6,7.7-2.1,16.8c-1.5,9.2-3.6,21.3-2.5,29.1s2,14,3,14.2c1.1,0.2,3.6-1.3,5.8-7.8c2.2-6.4,2.9-6.2,3.5-10.8
	c0.6-4.6,1.1-6.8-0.4-9.3c-0.1-4.9,0.6-9.9,2.1-14.6c1.1-2.7,2-5.5,2.7-8.3c0.8-3.8,2.7-5.3,3.8-10.5c0,0,2.1-10,3.1-14.6
	c1.1-4.5,0.5-5,4.2-10.1c3.7-5.1,4.1-5.6,5.2-9.4c0,0,0.8-2.4,1.2-3.8c0.2-1.1,0.5-2.1,1.1-3.1c0.5-0.7,0.2-1.1-0.8-1.1"/>
<path d="M230.3,212.3c0,0-4.2-6.9-2.6-9.4c1-1.6,3.1-2.1,4.7-1.1c0.5,0.3,0.8,0.7,1.1,1.1C234.7,204.7,234.9,207.1,230.3,212.3
	 M74.6,220.7c3.7-6.1,8.2-12.8,8.2-12.8c1.5,0.1,2.9-0.1,4.3-0.5c1.5-0.6,4-2.1,3.9-0.6c-0.2,1.5-8.3,15.1-11.7,19.4
	c-2.6,3-5.4,5.7-8.4,8.2C71,229.5,72.3,224.9,74.6,220.7 M-26.4,202.5c-2.1,5.4-4.9,10.6-8.3,15.3c-5.8,8.1-11.8,12.6-12,6.8
	c-0.2-5.8,4-14.4,6.2-17.2c2.2-2.8,10.8-14.6,16.6-15.2C-24.9,195.6-25.7,199-26.4,202.5 M190.1,218c0.4-2.5,0.7-4.4,2.5-4
	c1.7,0.4,1.5,4,0.6,6.5c-1.4,3-3.3,5.8-5.5,8.3C187.7,228.8,189.8,220.5,190.1,218 M261.2,255.4c-0.8-8-9.4-18.2-17-24.2
	c-5.3-4.4-9.6-10-12.5-16.3c1.3-1.4,7.6-8.3,8.5-12.5c0.9-4.2-1.8-4.8-4.3-5.5c-2.5-0.7-5.7-0.8-6.9-1.2c-1.2-0.4-1.2,0.7-4,2.8
	c-2.8,2.1-3.6,1.3-4.2,7.6s3.5,13.6,3.5,13.6c-5.9,7.5-12.2,14.6-18.9,21.4c-4.5,4.9-9.5,9.4-14.8,13.4l-0.3,0.1
	c-2.9,1.9-2.9-1-3.2-3.3c-0.1-2.5-0.3-4.9-0.7-7.4c-0.3-3.2-0.1-6.4,0.4-9.6c0.5-0.5,0.9-1.1,1.2-1.6c0.4-0.7,1.6-1.8,2.1-2.3
	c0.4-0.5,0.4-0.4,0.1,0c-0.2,0.4-0.4,0.7-0.6,1c-0.4,0.6-0.7,1.2-1,1.8c0,0,0.6-0.5,1.3-1.2c0.7-0.7,0.9-1.2,1.3-1.7
	c0.4-0.5,0.3-0.3,0.2,0.1c-0.3,0.6-0.7,1.2-1.1,1.7c-0.5,0.6-1,1.1-1.5,1.6c0.6-0.3,1.2-0.6,1.7-1.1c0.2-0.3,7.4-8.2,9.8-16.6
	c2.3-8.4-3.2-9.1-4.8-9.3c-1.9-0.4-3.9-0.5-5.8-0.2c-4.2,0.3-6.3,6.4-10.7,16.8c-2.7,6.1-4.1,12.7-4.2,19.4l-1.1,1.4l0.2-0.1
	l-0.1,0.1h0.1c0.4-0.5,0.9-1,0.9-1c-0.1,0.5-0.3,0.9-0.6,1.2c-0.3,0.4-0.5,0.8-0.9,1.1l-1,1.1c0,0,0,0.3,0-0.3s0.1-0.4,0.5-0.9
	c0-0.1,0.1-0.2,0.1-0.3l-0.2,0.1c-11,13.2-19,16.6-20.3,17c-1.3,0.4-1.2-2.4-1.2-3.8s1.3-4.7,1.6-6.5c0.4-3.5,1.4-6.9,2.9-10
	c1.7-3,3.1-6.2,4.2-9.5c1.7-4.7,7.9-26.9,8.1-28c0.1-1.5-0.3-2.9-1-4.2c-0.6-1.1-1.3-2.1-2.3-2.9c-1.6-0.9-3.3-1.3-5.1-1.3
	c-1.7-0.3-3.4-0.3-5,0c-1.2,0.1-2.1,1.2-2.1,2.4c-1,1-1.4,0.8-0.9,6.4c0.5,5.6-1.6,12.5-8.8,26.8c-4,8.1-8.9,15.8-14.6,22.9
	c-0.4-4.3-0.7-8.6-0.7-12.9c0.2-3.5,1.8-9.8,0.8-16.4c-1-6.6-7.7-9.7-12.6-13s-1.3-8.3-0.6-10.6s-1.3-2.3-3.4-2.1
	c-2.1,0.2-1.9,0.2-2.9,0.6c-1,0.5,1-0.5-1.1,3.1c-2.1,3.6,0.4,9.5,0.4,9.5s-3.7,5.8-6.9,11c-3.2,5.2-14.9,23.2-17.5,26
	c-2.6,2.8-7.8,6.9-10.6,4.2c-2.8-2.8-2.1-11.8-2.1-11.8c2.1-2.9,4.3-5.7,6.7-8.3c1.9-2,3.6-4.1,5-6.5c0,0,1.5,0,9.8-10.4
	s7.2-14.7,7-17.7c-0.2-3.1-3.7-5-7.8-7.1c-2-1.3-4.4-1.8-6.7-1.2c-1.2,0.2-1.5-1-2.3-0.3c-0.7,0.6-1.5,1.1-2.4,1.5
	c-1.1,0.5-2.6,2.6-3.9,2.9c-1.3,0.3-3,0.6-1.9,2.3c0.7,0.8,0.7,1.9,0,2.7c-9.9,13.3-14.5,29.7-13.1,46.2c-2.1,1.6-7.1,5.6-9.4,7.1
	c-1.5,0.8-3.3,1.2-5.1,0.9c-5.3-0.5-10-3.3-13.1-7.6c-4.6-6.9-3.6-30.7-1.4-45.6c2.2-14.9,12-55.6,13.2-60.3c0.8-2.9,1-6,0.6-8.9
	c0.5-3.1,1.6-6.1,3-8.9c0.6-0.7,0.7-1.2-0.3-1.5c-1-0.3-1.6-1.5-2.1-2.2c-0.5-0.7-2.9-0.5-3.6-0.3c-0.7,0.2-3.6-1.2-5.6-1.7
	s-3.6-0.5-4,0c-0.5,0.5-1,1.6-1.2,1.3s-0.8-1.2-1-0.6c-0.2,0.6,0.1,0.7-0.1,1.4c-0.2,0.7-1.3,1.8-1.8,1.7c-0.5-0.1-0.4-1.4-0.6-0.3
	c-0.3,1.1-0.3,0.9-0.7,1.2c-0.3,0.3-0.6-0.2-0.8,0.2c-0.2,0.4-0.2,0.8-0.6,1.3c-0.5,0.5,0,1.8,0,1.8c0.2,3.1-2.1,7.9-5.6,20.5
	c-3.5,12.6-6.9,30.6-6.9,30.6C12,187.8,8.2,199,3.3,209.8c-2.1,4.7-4.6,9.3-7.4,13.6c-2.1,3.1-2.7,7.6-5.4,8.6
	c-1.8,0.8-3.2,2.1-4.2,3.8c-0.3-6.7,0-13.5,0.8-20.2c1-6.9,2.7-13.8,5-20.4c0.9-2.6,1.7-5.5,2.1-7.1c0.4-1.5,1-2.3,0.2-2.6
	c-1.4-0.5-2.8-1.1-4.2-1.9c-0.7-0.6-1.5-0.9-2.4-0.9c-1.1-0.2-2.2-0.5-3.3-0.8c-0.9-0.2-1.8-0.6-2.6-1.1c-0.4-0.2-0.9-0.4-1.4-0.4
	c0,0-0.2,0-0.5,0.5c-0.2,0.5-1.6,3.3-2.2,4.7c-1.9,0.2-3.6,0.8-5.1,1.9c-5.1,3.1-9.6,7.2-12.9,12.2c-4.9,7.4-6.7,10.1-7.8,13.5
	c-1.3,3.6-2.3,7.2-3.1,10.9c-1.1,5.1-0.9,8.6,0,9.9c0.6,1.2,1.4,2.2,2.4,3c1.4,1,2.6,2.4,4.2,1.3c2.3-2.1,4.9-4,7.6-5.7
	c2.2-1,5-6,7.9-7.2c0,0,0.2,5.7,0,11.5c-0.2,5.8-0.7,9.8,1.2,11.4c1.9,1.7,4.4,5.6,6.2,5.4c1.8-0.2,2.6-1.5,4.2-1
	c1.6,0.6,3,0.4,6.2-5s15.5-25.7,20.9-40.3c0,0-0.1,33.1,11.6,45s18.4,14.7,33.8,4.3c0.3,0.4,0.7,0.5,1.1,0.3c1.7-2.2,3.9-4,6.4-5.3
	c0,0,2.1,8.1,7.3,10.9s10.2,3,13.4,0.7c3.1-2.2,6.8-6.8,11.9-13.8c3.5-4.7,3.6-9.2,7.3-14.9s2.9-7.9,4.2-10.5c1.3-2.6,4-8.6,4-8.6
	c1.6,1.7,3.4,3.2,5.3,4.5c2.4,1.4,1.9,7.9,0.7,12.1c-1.2,4.1-1.8,19.2,3.5,26.5c5.4,7.4,10.5,6.9,13.9,3.5c3.4-3.8,6-8.3,7.6-13.1
	c0,29.1,13.9,21,19.2,16.8c5.4-4.2,14.8-16.1,14.8-16.1c1.9,14.1,10,16.3,14.4,15.8c4.5-0.5,8.2-7.9,10.8-12
	c3.3-4.5,6.9-8.7,10.7-12.7c1.8-2.1,3.4-4.4,4.8-6.8c1.7-2.5,9.7-11.3,9.7-11.3l3.9,5.8c1.2,1.8,7.2,7.2,10,10c2,2.4,3.7,5,5,7.9
	c-0.6,0.3-1.3,0.4-1.9,0.4c-1-0.3-1.8-0.7-2.6-1.4c-0.9-0.6-2-0.7-2.9-0.2c-0.5,0.3-1.5-0.3-2.1-0.7c-0.6-0.4-1-1-1.8-1
	c-0.9,0-1.1-0.6-1.5-0.9c-0.4-0.3,0-1.4-0.3-1.1c-0.2,0.4-0.6,0.7-1.1,0.7c-0.5,0.1-1,0.3-1.4,0.7c-0.4,0.3-0.6-0.1-1.1-0.6
	c-0.5-0.4-0.5-0.5-0.8,0.3s-0.5-0.5-0.6-0.7s0,0.6-0.5,0.4c-0.3-0.2-0.6-0.4-0.8-0.7c0.6,16.8,13.6,22.4,19.7,24.1
	c4.4,1.5,9.2,0.6,12.8-2.3c0.5,0.4-0.4,1.9,0.1,1.5c0.5-0.4,1-2.3,1.4-1.9c0.4,0.3-0.3,3.2-0.3,3.2c0.8-1.6,1.2-3.4,1.1-5.2
	c0-0.6,0.4-0.2,0.9,0.3c0.4,0.5,0.5,0.4,0.5,0.4C263,260.6,261.3,255.4,261.2,255.4L261.2,255.4z"/>
<path d="M112.3,406c0,0,0-0.1,0-0.1c0-0.1,0-0.3,0-0.4c0-0.1,0-0.3,0-0.4s0-0.4,0-0.6c0-0.1,0-0.1,0-0.2c0,0-0.1,0-0.1,0
	c0,0,0,0.1,0,0.1c-0.1,0.1-0.1,0.2-0.2,0.2c-0.1,0.1-0.1,0.2-0.1,0.3c-0.1,0.3-0.1,0.5,0,0.8v0.2c0,0.1,0,0.2,0,0.2v0.2v0.2
	c0,0,0,0.3,0,0.3h0.1c0.1,0,0.2-0.1,0.2-0.1c0-0.1,0-0.3,0-0.4c0-0.1,0-0.2,0-0.2"/>
<path d="M110.8,404.1c-0.2,0-0.4,0.2-0.4,0.4l0,0c0,0.1,0,0.3,0,0.4c-0.1,0.2-0.1,0.4,0,0.5c0,0,0.1,0.1,0.2,0
	c0.1,0,0.1-0.1,0.2-0.2c0-0.1,0-0.2,0-0.2c0-0.1,0.1-0.1,0.1-0.2v-0.2c0.1-0.2,0.1-0.3,0-0.5c-0.1,0-0.3,0-0.4,0"/>
<path d="M4.3,379c-4.6,2.1-7.6,2.9-6.8-5c0,0,4.5-43.7,22-76c2.1-4.6,2.9-9.7,2.2-14.7c-0.3-4.3-5.7-7.5-7.3-8.1
	c-2.1-0.5-4.1-0.9-6.2-1.2c-1.4,0-2.8-0.1-4.2-0.3c-0.5-0.4-1.3-0.3-1.7,0.2c-0.4,0.6-0.9,1.1-1.6,1.4c-0.8,0.1-1.6,0.6-2.1,1.3
	c-0.8,1.5-1.9,4.7-10.3,28s-14.8,47.3-14,62.6s10.2,23.7,20.4,26.3C5,396.2,19,382.3,26.9,375S40,363,40,363s-12.2,4.8-21.6,9.3
	C18.3,372.3,8.9,377,4.3,379"/>
<path d="M88,399.5c0-0.8,0.4-1.1,0.3-2c-0.1-0.9,0-2.1-0.4-2c-0.3,0.2-0.4,0.5-0.3,0.8c0,0.6,0.2,0.8,0.2,1.4
	C87.8,398.4,87.8,401.2,88,399.5"/>
<path d="M303.6,336.4c-12,19.8-18.7,27.3-18.7,27.3s0.3-8.1,0.3-12.3c-0.1-3.7,0.4-7.3,1.7-10.8c1.9-5.7,3.3-11.5,4.4-17.4
	c1.4-7.4,3.3-14.7,5.7-21.8c0.5-1.5,1-3.2,1.5-5.2c5.7-0.7,11.1-1.7,13.3-2.3c2.6-0.7,9.5-2.5,14.6-3.7
	c-6.5,15.9-14.1,31.3-22.7,46.1 M384.1,313.8c3-9.9,12.3-21.6,12.3-21.6c1.4-2.2,3.2-3.4,3.8-2.9c0.5,0.6,3.8,1.1,5.1,2.2
	c1.2,1.1,1.6,1.3-0.9,5.7S393.4,313,393.4,313c-2.4,2.7-6.6,7.3-11.6,12.6C382.1,321.6,382.9,317.6,384.1,313.8 M207,382.1
	c-1.5,10.2-12.2,31.9-19.4,28c-7.2-4-2.1-26.3,18.7-41.1c0.9-0.6,1.8-1.2,2.6-1.9C208.3,373,207.6,378.6,207,382.1 M144.9,329
	c-0.3,1.1-0.5,2.2-0.8,3.5c-2.7,3-5.8,5.7-9.1,8.1c-2.1,1.4-1.9-1.1-1-4.3c1.2-5.3,3.9-10.2,7.9-13.9c1.9-1.8,4.2-3.2,6.6-4
	C147.1,321.8,145.9,325.4,144.9,329 M243.8,325.5c6.1-10.8,12-12.5,12.7-9.7c0.8,3.2-11.4,16.1-15.2,20.4c-0.9,1-1.8,1.9-2.9,2.7
	c1.2-4.8,3-9.3,5.5-13.5 M373.3,349.8c4.3,19.4,18.3,35.2,37,41.8c15.3,5.6,36.8-1.3,40.3-3.2c3.5-2,4.3-2.8,1.2-2.7
	c-3.1,0-20.4,3.2-26.9,2.5c-6.4-0.7-9.8-0.8-17.5-6.4c-7.7-5.6-15.1-13.9-22.5-30.5c-1.3-3.3-2.2-6.7-2.8-10.2l1-1l3.7-3.6
	c4.6-4.6,14-10.9,20.8-17.4c5.6-5.1,10.9-10.4,15.8-16.1c1.9-2.7,5.8-8.7,6.9-9.8s0.6-2.1,0.5-3.2s0.1-2.1-0.5-2.7
	c-0.6-0.6,0.6-1.9-0.3-4.2c-1-2.3-4.3-2.7-6.4-2.8c-3.5-0.4-7-1-10.4-1.7c-1.7-0.3-4.6-0.6-5.5-0.8s-0.9-0.8-0.9-0.8
	c-0.6,0.8-4,0.2-6,0.2s-4.6-0.4-5.8,1.4c-2.4,2.8-5,5.4-7.8,7.9c-2.2,2.3-4,5-5.1,7.9c-2.9,4.9-12.5,16.6-10.9,40.6l0.1,1.6
	c-15.1,15.7-32.2,33.1-36.9,37.6c-7.7,7.3-9.2,9.6-11,7.4c-1.9-2.2,6.2-31.4,9.3-41.6c3.1-10.2,6.9-25.8,11.4-44.1
	c0.7-3,1.7-6.7,2.8-10.7l24.1-5.9c17.9-4.4,57.7-16.3,68.2-19.6c0,0,13.4-4.2,17.5-6c4.1-1.9,8.7-3.3,10.3-3.9
	c0.5-0.2,1-0.4,1.4-0.6c0.5-0.3,0-0.6,0.4-0.7c0.6-0.2,1.1-0.5,1.5-0.9c0.2-0.3-0.7,0.2-1.1,0.3c-0.4,0.1-0.9-0.1-1.1-0.5
	c-0.2-0.3-0.1-0.5-0.6-0.3c-1.3,0.1-2.6,0.1-3.9,0c0,0-5.9,0.8-16.4,2.7c0,0-83.6,17.6-90.4,19.1l-5.6,1.3
	c5.1-16.9,10.5-33.7,10.5-33.7c1.2-2.5,2.2-5,3-7.6c0.4-0.9,0.4-1.9,0-2.7c-0.5-0.6-0.5-1.6-0.9-1.9c-1-0.4-2-0.6-3.1-0.6
	c-1.2-0.2-2.4-0.3-3.6-0.3c-1,0.2-2.1,0.3-3.5,0.6c-1.2,0.2-2.4,0.3-3.6,0.2c-0.7,0-2.7-0.6-3.4,0c-0.7,0.6-0.4,1.2-1.3,1.4
	c-0.9,0.2-0.9,0.6-0.9,0.6c-0.4,2.3-0.6,3.6-0.6,3.6c0.1,3.2-0.4,6.4-1.6,9.5c-2.8,8.5-5.1,17.1-7,25.8c-0.8,3.2-1.8,6.3-2.9,9.4
	l-16.4,3.7c-3.3,0.7-8.1,1.6-13.6,2.5c2.1-8.8,3.9-17.5,4.5-21.3c0.6-4.7,0.6-9.4,0-14.1c-1.1-6.2-1.5-11.9-3.9-14.9
	c-1.5-2.5-4.1-4.2-6.9-4.6c-2.2-0.1-3.6,0-5,0c-1.4,0-0.5,1.9-0.5,1.9c-2.2,0.2-3.4,0.5-2.9,5.5s-2.8,28-7.3,47.4l-0.9,3.7
	c-9.8,1.4-18.2,2.4-21.1,2.5c-6.8,0.1-7.6-0.2-9.2-0.6c0,0-2.7-1-2.9-0.1s-0.3,1.8-0.1,2.1c0.2,0.2,0.5,1.2,0.2,1.4
	c-0.3,0.2-0.9,0.5-0.4,1.3c1.1,1.1,2.5,1.9,4,2.4c1.5,0.6,3,1.3,4.4,2.2c0,0,1.9,1.6,7.3,1.3c0,0,7.5,0,14.7,0.2
	c-2.1,7.8-3.4,11.3-3.4,11.3s-2.4,5.5-11.8,25.4c-9.5,19.9-17.5,28.5-21,27.8c-2.2-0.5-2.8-4.4-2.9-7.1c0-0.6,0-1.2,0-1.7
	c-0.1-2.9-0.1-5.7,0.2-8.6c8-7.6,15.5-15.7,22.6-24.1c5.5-6.8-0.3-9.6-2.9-9.5c-3.8,0.2-7.6,1-15.6,10c-5.3,5.9-8.6,16-10.2,24.2
	c-3.2,2.3-6,4.2-6,4.2c-1.8,1.1-3.6,2.3-5.3,3.5c0.9-4.2,2.1-7.2,2.7-10.4c1.3-7,1.3-7.3,1.3-7.3c0.2-1.2,0.4-2.1,0.4-2.1
	c1.2-7.8-1.2-11.2-2.9-11.5c-1.6-0.3-1.7-1.2-3.8-2.4s-2.4-0.5-3.6,0.1c-1.3,0.6-1.3,0.2-1.6,0c-0.3-0.2-0.5,0-3.3,3.1
	c-2.8,3.1-6.8,7.8-9.8,11.7c-3,4-9.8,9-12.8,3.9c-3-5-1.2-13.7,0.1-15.5c1.4-1.8,1.4-2.5,1.1-2.8c-0.8-0.6-1.9-0.7-2.8-0.2
	c-1.4,0.6-1.6,1.1-2.4,2.4c-1.5,2.5-3.5,4.7-5.8,6.5c-4.3,3.6-18.3,21.5-19.4,22.9c-1.1,1.4-1.3,1.1-1.6,1c0.1-3.3,0.4-6.6,1-9.8
	c0.7-5.2,2.1-10.3,4.3-15.1c2.1-4,4.2-8.3,4.2-8.3c0.6-1.4,1.6-5.5,1.7-6s0.3-2,0-2.2c-1.5-0.3-2.9-0.5-4.4-0.6
	c-1.6-0.3-3.2-0.4-4.8-0.5c-1.4-0.2-2.8-0.5-4.2-1c0,0-1.4,2.6-3.1,6.2c-2.1,0.3-4.2,0.8-6.2,1.6c-3,1.2-9,4.7-13.1,14.7
	s-1.5,13.4-0.6,13.8c0.9,0.4,2.3,2.5,4.9,1.1c1.9-1.1,5.2-3.1,7.3-4.6c-0.9,5.6-1.3,11.3-1.3,17c0.3,3.8-1.5,4.4,2.7,7.9
	c4.2,3.5,4,3.3,5.4,2.7c1.4-0.6,2.3,0.3,3.3,0.8c1,0.5,3.2,2.1,4,0.6c1.3-2.7,2.9-5.3,4.7-7.7c2.8-3.8,14.6-23.4,20.4-30
	c0,0-1,11,8.3,12.2c9.3,1.2,11.9-7.1,21-10c0.3,3,0.3,6,0,9.1c0,0-0.8,8.1-1.7,17.2c-2.9,2.3-6,4.9-9.3,7.8
	c-18.4,15.8-32.1,39.7-20.8,52.6c13.5,15.3,30.1-17.3,35.7-43.1c1.7-7.8,2.2-12.8,3.2-17.2c5.2-4.7,8.3-7.4,10.4-9.1
	c0.6-0.4,1.2-0.9,1.9-1.4c0,1-0.2,1.9-0.2,2.7s-1.6,8.6,4.7,13.5c6.4,4.9,12.5,4.2,22.7-10.8c10.2-15,11.5-17.2,11.5-17.2
	s-0.1,6.6-1.3,15.4c-1.2,8.7,0.9,21.7,12.7,28.7c11.8,7,14.4-2.2,16.9-7.4c2.5-5.2,15.6-26.9,18.7-34c2.4-4.9,5.3-9.6,8.7-13.9
	c0,0-1.2,7.6-2.7,14.8s-1.7,17.5-2.5,28.9s1.7,15,1.7,15c4.3,6.6,25.1-12.5,34.6-20.4c4.8-4,11-9.6,16.9-15.3"/>
<path d="M112.2,373.8c0,0,0.1,0,0-0.2s-0.1,0-0.2-0.2c0-0.2,0-0.2,0-0.2c0-0.1,0-0.1,0-0.2c0,0,0-0.1-0.1-0.1s-0.1,0-0.2,0.1
	c0,0.1-0.1,0-0.1,0.2s-0.2,0.7,0,0.9c0.1,0.1,0.3,0.1,0.4,0C112,374.1,112,373.9,112.2,373.8"/>
<path d="M111.4,358.2c-0.3,0.9-0.5,1.9-1.1,2.2s-1.5,1-1.7-0.7c1.4-11.4,2.1-17,2.1-17l0.3-1.4c0,1,0,3.7,0.1,4.7
	c0.1,1-0.8,3-0.5,3.9c0.3,0.9,0.6,1.3,0.3,2.1s-1.1,2.1-0.6,2.7c0.5,0.6,1.2,0.9,0.8,0.9s-1.2-0.1-1.2,0.6c0.1,0.6,0.4,1.1,0.8,1.4
	C110.7,357.7,111.6,357.3,111.4,358.2 M107.7,395.4c0,0.6,0.6,1.9,0.4,2.1c-0.1,0.2-0.2,0.3-0.2,0.3s-0.2,0.2-0.2,0.8
	s-0.9,0.4-0.8-0.3c0-0.9-0.1-1.8-0.3-2.7c0-0.3,0.1-0.7,0.3-0.9c0.7-0.3,0.8,0,0.8,0.6 M53.3,318.6c-0.9,2.3-3.8,16.1-3.8,16.1
	s-14.2,15.9-19.6,19.8s6.1-17.1,10.6-23.6c3.4-4.6,7.4-8.8,11.7-12.6C53.6,316.9,54.2,316.2,53.3,318.6 M124.7,290.3
	c4.8-8.3,8.9-11.9,10-11.3c1.1,0.6,1.1,7-4.6,17.9c-4.3,7.6-9.7,14.4-16,20.4c2.6-9.3,6.2-18.4,10.6-27 M125.3,333.4
	c0.6-0.6,0.4-1,0.4-1c-0.3-0.1-0.6-0.2-0.9-0.2c-0.3,0,0,0,0-0.2c0-0.2,0-0.4-0.3-0.4c-0.3,0,0-0.3,0-0.6c0-0.3-0.2-0.5-0.5-0.7
	s-0.7-0.2-0.6-0.4v-0.2h-0.8c0.4-0.3,0-0.6-0.5-0.4c-0.7,0.3-1.4,0.4-2.1,0.5l-6.8,1.1c0-0.3,0-0.6,0.1-0.8c0-0.4,0.1-0.7,0.2-1.1
	c0.2-0.5-0.2-0.9,0.2-1.3c0.4-0.6,0.3-1.5-0.3-2l-0.6-1.1c0,0,3.2-4,6.5-7.6c3.3-3.6,12.5-14.3,17.1-26.6
	c4.6-12.3,2.2-13.3-1.9-15.6s-9.8-1.1-14.7-0.3c0,0-7.1,1.2-8.8,1.2c-1.7,0-2.6,0.7-2.4,1.7c0.2,1-1.1,2.1-1.5,3.2s-1,2.7-1.4,3.8
	s-1.6,3.6-1.2,3.5c0.3-0.2,1.1-0.7,1.2-0.3c0.2,0.7,0.2,1.5-0.1,2.2c0,0-1.4,4.1-3,7.9c-1.6,3.8-7.5,17.7-9.5,21.5
	c-2,3.8-4.2,8.3-5.7,11.1s-1.3,3.9-3.3,4.3c-1.5,0.2-2.9,0.6-4.3,1.1c-1.2,0.6-0.2,1.4-1.4,1.9l0.4,0.3c-0.3,0.5-0.3,0.4,0,0.9
	c-0.2,0.1-0.3,0.3-0.5,0.5c0.2,0.1,0.3,0.1,0.5,0.2c-0.1,0.1-0.2,0.4-0.4,0.6h0.9c-0.3,0.5-0.2,0.9,0.4,1c0.5,0.4,1.1,0.7,1.7,1
	c0,0-8.2,13.9-9.3,16.3c-1.1,2.4-1.7,2.4-1.4-1.6c0.3-4,0.1-27.2,2.2-32.7c2.1-5.5,3.4-8.9,1.5-11.5c-0.5-0.8-0.9-1.6-1.3-2.4
	c-0.1-0.3-0.4-0.6-0.6-0.8c-0.3-0.3-0.5-0.8-0.9-0.9c-0.6-0.1-1.1-0.1-1.7,0h-0.4c-0.6,0-1.2,0-1.9,0c-0.7-0.2-1.4-0.2-2.1,0
	c-0.8,0.2-1.5,0.5-2.3,0.7c-0.8,0.2-2.3,0.7-3,0.2c-0.2-0.1-0.3-0.3-0.5-0.4c-0.4,0-0.8,0.1-1.2,0.3c-1.8,1-1.2,0.3-3.1,0.2
	c-1.9-0.1-3.2,1.1-11,8.3s-15.6,23.3-17.1,28.6c-1.5,5.2-4.2,7.9-1.6,11.2s6.7,0.3,10.8-3.6s12.5-10.1,12.5-10.1
	c0.2,13,1.3,25.9,3.2,38.7c0.8,5.5,11.2,9.2,16.5,8.6c5.4-0.6,8.7-12.9,12.2-19.7c3.3-6.5,10.2-19.2,10.8-20.4
	c-0.2,1.3-0.4,2.7-0.6,4.2c0,0-1,13.5-1.9,28.4c-0.1,1.5,0.1,2.9,0.5,4.3c0.5,1.6,0.7,3.3,0.4,4.9c-0.2,2.8-0.3,5.5-0.1,8.3
	c0.1,2.2-1.2,3.2-1.4,1.7c0-0.8-0.4-1.2-0.3-1.7c-0.4,7-0.6,13.1-0.6,16.6c0,6.7,2.7,7.9,3.5,8.8c0.5,0.6,0.7-0.7,2.1,0.8
	c0.9,0.7,2,1,3.2,1.1c2.1,0.2,2.2,1.5,2.8,1.1c0.6-0.4,0.4-1.3,1.3-1.5c0.9-0.2,1.8-0.1,2.6,0.3c0.8,0.3,1.8,0,2.1,0.4
	s0.5,0.4,0.5,0.4c0.4-0.7,0.7-1.5,0.8-2.3c0.5-2,0.8-4.1,0.9-6.1c0.2-3,0.2-8.3,0.4-16.2v-0.4c0-0.5,0.2-1.5,1-1.6s0.6,1.4,0.3,3.2
	c-0.5,1.7-0.6,3.4-0.3,5.1c0.4,0.9,1,0,1.1-2.4c0.2-1.5,0.3-3,0.3-4.5c-0.1-1.3-1-3.5-0.5-4.7s0.1-1.7,1.3-1.3
	c0.6,0.3,1.1,0.5,1.7,0.6c0.1-0.8-0.3-1.6-0.9-2.1c-1.1-0.5-0.8-1.3-0.8-1.3s-2.1,1.8-2.1,0c0-1.8,0.6-2.1,0.6-4s-1.1-1.7-1-2.8
	s0.4-1.1,1-1.1c0,0,0-1.5-0.5-1.9s-1.4-0.2-1.4-2.1c0-1.8,0-3.7,0-5.6c0.2-1,0.8-1.9,1.5-2.5c1.4-1.2,0.5-1.5-0.5-2.7
	c-0.9-1.2,0.5-2.4,0.6-4.6l0.2-2.2c0,0,0.8-0.7,1.4,0c0.6,0.7-0.3,1.6-0.2,2.6c0.2,1,0,2.2,0.4,2.2c0.4,0,0.4,0.8,0.7,1.1
	s1,0,0.6-1.6c-0.4-1.6,0.6-2.4,0.1-2.2c-0.5,0.1-0.9,0-0.1-0.9c0.8-0.9,0.1-1.1,0.3-2.4c0.2-1.3,0-1.4,0-1.4s-0.6,2.6-1.3,0.3
	c-0.3-0.8-0.2-1.8,0.2-2.6c0.1,0,0.1,0,0.3,0.1c0.1,0.1,0.1,0.1,0.2,0.2c0.2,0,0.5-0.1,0.6-0.3c0.1-0.1,0-0.2,0.1-0.3
	c0.1-0.2,0.1-0.2,0.2-0.2c0-0.1,0-0.6-0.3-0.6c-0.3,0-0.3,0.4-0.6,0.4c-0.2,0.1-0.1,0-0.2-0.2c0.1-0.5,0.2-1.1,0.2-1.7
	c0.2-3.2,1.4-4.8,1.6-7.5c0.2-2.7,0.6-6,0.6-6.8v-2.9c0.7-0.1,1.4-0.3,2.1-0.4c3.6-1.1,7-2.8,9.9-5.1c0,0,0.3-0.2-0.4,0
	c0,0-2.1,0.6-0.8-0.4c1.3-1,1.5-1.4,1.5-1.4s-1.7,0.6-1,0"/>
<path d="M112,386.7l-0.9-0.7c-0.4,1-0.4,2.1-0.2,3.1C111.6,390.2,112,386.7,112,386.7"/>
<path d="M110.6,380.2c0.3,0,0.2-0.5,0.2-0.7c0-0.2,0-0.3,0-0.5c0-0.2,0-0.2,0.2-0.4c0.2-0.2,0.3-0.5,0.4-0.7c0.1-0.1,0.1-0.3,0-0.4
	c-0.5-0.5-1.1,0.7-1.2,1.1c0,0.3,0,0.7,0,1C110.2,379.8,110.2,380.4,110.6,380.2"/>
</svg>
